
<svg version="1.0" xmlns="http://www.w3.org/2000/svg"
 width="250pt" height="60pt" viewBox="0 0 786.000000 204.000000"
 preserveAspectRatio="xMidYMid meet">

<g transform="translate(0.000000,204.000000) scale(0.100000,-0.100000)"
fill="blue" stroke="none">
<path d="M1425 2024 c-16 -2 -73 -9 -125 -15 -195 -23 -369 -83 -511 -179 -76
-51 -191 -165 -237 -234 l-32 -50 -107 3 c-59 1 -110 4 -114 6 -3 2 -43 0 -90
-4 -82 -9 -85 -10 -121 -50 -40 -46 -65 -109 -74 -188 -10 -85 12 -133 61
-133 20 0 27 8 39 50 8 28 20 79 27 113 14 74 32 113 60 127 13 8 62 9 151 4
l130 -7 -7 -407 -8 -408 28 -18 c44 -29 147 -43 406 -56 186 -9 277 -9 366 -1
140 13 248 46 274 83 27 37 39 213 39 573 0 294 -1 307 -19 307 -30 0 -40 -20
-66 -140 -14 -63 -32 -124 -40 -136 -8 -13 -33 -29 -55 -35 -34 -10 -43 -9
-66 6 l-27 17 6 102 c4 55 10 113 13 129 l6 27 -403 1 c-243 1 -382 5 -349 9
69 10 347 27 587 36 l182 7 12 29 c22 53 103 74 209 53 l36 -7 99 162 c89 146
101 161 122 155 40 -10 1464 -528 1460 -531 -1 -2 -327 98 -722 221 -396 124
-726 225 -735 225 -8 -1 -47 -53 -88 -118 l-72 -117 51 -7 c28 -3 55 -12 59
-19 15 -24 -12 -59 -54 -71 l-41 -11 125 -25 c69 -14 128 -30 132 -36 4 -6 8
-132 8 -280 l0 -269 31 46 c38 58 88 100 159 134 97 47 263 42 949 -28 162
-16 295 -28 297 -26 1 1 -269 56 -601 122 -567 112 -708 144 -513 116 96 -14
1165 -200 1189 -207 14 -4 17 6 21 58 6 80 -6 215 -22 250 -11 23 -56 42 -432
179 -376 136 -422 155 -446 185 -23 28 -68 49 -297 139 -280 110 -339 125
-397 106 -28 -9 -40 -8 -66 4 -17 9 -57 20 -89 25 -55 9 -242 11 -308 4z m514
-371 c-1 -88 -2 -94 -11 -56 -9 37 -3 153 8 153 2 0 3 -44 3 -97z m454 -216
c-10 -48 -10 -43 -10 58 0 105 0 108 10 52 6 -39 6 -76 0 -110z m314 -74 c-2
-32 -3 -8 -3 52 0 61 1 87 3 58 2 -29 2 -78 0 -110z m252 -10 c-1 -70 -4 -99
-9 -83 -14 44 -9 190 6 190 2 0 4 -48 3 -107z m-1724 -30 c4 -54 11 -108 16
-121 15 -38 72 -55 165 -49 l82 6 7 -47 c8 -55 -4 -352 -15 -352 -4 0 -36 44
-72 98 -129 194 -276 350 -448 476 -41 30 -84 62 -95 70 -18 14 -2 15 167 16
l186 0 7 -97z m1922 -80 c-2 -27 -3 -5 -3 47 0 52 1 74 3 48 2 -27 2 -69 0
-95z m162 22 c0 -22 -4 -49 -9 -60 -6 -13 -9 7 -9 60 0 53 3 73 9 60 5 -11 9
-38 9 -60z m-1156 28 c-7 -2 -19 -2 -25 0 -7 3 -2 5 12 5 14 0 19 -2 13 -5z
m-1471 -82 c4 -3 4 -40 1 -81 -6 -82 -4 -80 -105 -145 l-28 -17 0 130 0 130
63 -5 c34 -3 65 -8 69 -12z m127 -7 l31 -6 0 -70 0 -70 -43 6 c-33 5 -47 3
-57 -9 -25 -30 -40 1 -40 81 l0 74 39 0 c21 0 53 -3 70 -6z"/>
<path d="M1650 1003 l0 -498 25 30 c13 17 24 37 25 46 0 28 57 105 110 150 28
24 63 62 76 85 24 41 24 43 24 330 0 159 -4 294 -8 300 -7 10 -199 54 -234 54
-17 0 -18 -30 -18 -497z"/>
<path d="M5760 1091 c0 -203 5 -230 53 -298 54 -77 79 -83 340 -83 l227 0 -2
283 -3 282 -67 3 -68 3 0 -231 0 -230 -127 0 c-152 0 -191 13 -210 70 -7 22
-12 103 -12 213 l-1 177 -65 0 -65 0 0 -189z"/>
<path d="M7220 995 l0 -285 70 0 69 0 3 110 3 109 150 -109 149 -110 85 0 c48
0 81 4 76 9 -6 4 -85 68 -177 140 -93 73 -168 135 -168 139 1 4 80 68 177 142
l176 135 -83 3 -82 3 -147 -111 c-82 -60 -151 -110 -155 -110 -3 0 -6 50 -6
110 l0 110 -70 0 -70 0 0 -285z"/>
<path d="M3799 1260 c-46 -14 -76 -40 -104 -92 -25 -45 -29 -66 -33 -153 -7
-161 27 -247 112 -286 34 -15 67 -19 191 -19 137 0 155 2 195 23 81 40 110
108 110 253 0 146 -36 229 -114 265 -34 15 -65 18 -186 18 -80 0 -157 -4 -171
-9z m286 -116 c43 -20 55 -55 55 -155 0 -137 -25 -159 -175 -159 -156 0 -181
28 -173 186 7 125 28 142 171 143 62 1 99 -4 122 -15z"/>
<path d="M4400 1215 l0 -55 185 -2 186 -3 -185 -165 -184 -165 -1 -57 -1 -58
275 0 275 0 0 55 0 55 -182 2 -182 3 182 164 182 165 0 58 0 58 -275 0 -275 0
0 -55z"/>
<path d="M5080 1215 l0 -55 105 0 105 0 0 -225 0 -225 65 0 65 0 0 225 0 225
105 0 105 0 0 55 0 55 -275 0 -275 0 0 -55z"/>
<path d="M6500 990 l0 -280 70 0 70 0 0 50 0 50 98 0 98 0 37 -50 37 -50 70 0
c39 0 70 1 70 3 0 2 -18 27 -39 56 l-39 52 40 37 c70 63 96 142 77 231 -14 66
-62 130 -119 159 -42 21 -56 22 -257 22 l-213 0 0 -280z m395 154 c66 -31 83
-144 29 -195 -24 -22 -35 -24 -155 -27 l-129 -4 0 121 0 121 111 0 c80 0 120
-4 144 -16z"/>
<path d="M2016 925 c-3 -9 0 -17 7 -20 6 -2 336 -16 732 -32 698 -28 754 -28
725 1 -7 7 -1239 64 -1411 66 -33 0 -49 -5 -53 -15z"/>
<path d="M3197 653 c-8 -16 -17 -49 -21 -75 l-7 -47 -52 -11 c-29 -5 -207 -41
-397 -79 l-345 -69 -7 47 c-4 25 -10 72 -13 103 -4 34 -14 67 -26 82 -43 55
-141 39 -173 -29 -15 -31 -46 -149 -62 -231 -3 -19 -13 -22 -80 -29 -63 -6
-77 -10 -81 -26 -3 -10 -9 -19 -14 -19 -5 0 -9 61 -9 136 0 112 -2 135 -14
132 -23 -5 -165 -137 -193 -180 -15 -21 -29 -56 -32 -76 -5 -31 -10 -37 -31
-37 l-25 0 -3 171 -2 171 -60 -24 c-127 -51 -204 -64 -412 -70 -196 -6 -197
-6 -202 -29 -7 -27 -50 -42 -75 -27 -9 6 -18 21 -21 34 -5 24 -5 24 -152 24
l-147 0 -38 38 c-22 20 -42 37 -46 37 -13 0 -8 -275 6 -293 14 -18 93 -26 522
-52 137 -8 253 -19 259 -25 6 -6 -4 -7 -27 -3 -41 6 -48 -5 -15 -26 16 -10 81
-14 267 -16 203 -3 267 0 366 16 66 10 123 19 127 19 4 0 10 -17 14 -38 15
-84 44 -112 117 -112 93 0 159 40 193 117 20 44 28 53 49 53 21 0 25 5 25 29
0 17 3 32 8 35 7 4 593 116 609 116 4 0 16 -14 26 -31 16 -29 21 -31 60 -26
23 2 61 0 85 -5 59 -14 96 2 116 53 9 22 16 45 16 53 0 8 25 17 69 25 48 9 78
21 102 41 19 15 32 31 29 34 -3 3 -35 1 -70 -4 -119 -17 -116 -18 -124 48 -11
95 -59 135 -89 75z m-1634 -165 c-15 -28 -41 -59 -57 -69 -45 -28 -270 -59
-300 -42 -14 8 107 64 309 142 76 29 80 27 48 -31z m-1052 0 c19 -17 54 -40
79 -52 39 -18 42 -21 21 -24 -12 -2 -33 -1 -45 2 -33 8 -96 65 -96 87 0 25 2
24 41 -13z m14 -109 c25 -22 35 -39 35 -60 0 -32 -17 -37 -64 -19 -23 8 -26
15 -26 60 0 27 4 50 10 50 5 0 25 -14 45 -31z m1008 -53 c-1 -15 -9 -39 -18
-52 -14 -21 -23 -24 -78 -24 -57 0 -66 3 -91 29 l-28 29 74 25 c40 13 89 24
108 23 32 -1 35 -3 33 -30z m-535 -23 l3 -43 -110 0 -111 0 0 45 0 46 108 -3
107 -3 3 -42z"/>
<path d="M5990 405 c0 -14 25 -27 34 -18 11 11 6 21 -14 26 -12 3 -20 0 -20
-8z"/>
<path d="M4645 401 l30 -6 3 -103 c2 -82 6 -102 17 -102 12 0 15 19 15 100 l0
100 28 6 c51 11 47 12 -38 12 -50 0 -73 -3 -55 -7z"/>
<path d="M4860 378 c-35 -58 -23 -142 25 -174 36 -24 44 -9 12 24 -22 23 -27
37 -27 79 0 43 4 55 25 71 30 24 31 32 5 32 -12 0 -28 -13 -40 -32z"/>
<path d="M4940 405 c0 -2 11 -15 25 -29 36 -36 35 -103 -1 -146 -29 -34 -27
-48 5 -31 29 16 51 63 51 108 0 47 -32 103 -60 103 -11 0 -20 -2 -20 -5z"/>
<path d="M5091 326 c4 -73 7 -88 28 -110 14 -14 28 -26 33 -26 14 0 9 19 -12
40 -17 17 -20 33 -20 100 0 67 -3 80 -16 80 -14 0 -16 -12 -13 -84z"/>
<path d="M5230 330 c0 -67 -3 -83 -21 -101 -31 -31 -17 -45 16 -16 28 24 30
30 34 111 3 74 1 86 -13 86 -13 0 -16 -13 -16 -80z"/>
<path d="M5330 300 c0 -91 3 -110 15 -110 12 0 15 19 15 110 0 91 -3 110 -15
110 -12 0 -15 -19 -15 -110z"/>
<path d="M5380 401 c0 -5 12 -11 28 -13 23 -3 27 -8 30 -41 3 -34 0 -39 -30
-51 -27 -12 -30 -16 -15 -21 10 -4 27 -25 38 -46 11 -22 24 -39 29 -39 14 0
13 8 -11 50 l-21 38 21 21 c26 26 27 65 1 91 -20 20 -70 28 -70 11z"/>
<path d="M5680 308 c-19 -55 -36 -105 -38 -110 -2 -4 3 -8 11 -8 10 0 25 27
42 81 15 44 32 78 38 76 6 -2 21 -34 34 -72 13 -38 27 -73 33 -79 24 -24 19
10 -15 108 -49 138 -59 139 -105 4z"/>
<path d="M5910 378 c-35 -58 -19 -152 30 -178 27 -14 27 3 0 30 -15 15 -20 33
-20 69 0 33 6 56 20 74 24 30 25 37 5 37 -8 0 -24 -15 -35 -32z"/>
<path d="M6130 300 c0 -91 3 -110 15 -110 12 0 15 19 15 110 0 91 -3 110 -15
110 -12 0 -15 -19 -15 -110z"/>
<path d="M6180 400 c0 -5 18 -10 40 -10 22 0 40 5 40 10 0 6 -18 10 -40 10
-22 0 -40 -4 -40 -10z"/>
<path d="M6330 300 c0 -91 3 -110 15 -110 12 0 15 19 15 110 0 91 -3 110 -15
110 -12 0 -15 -19 -15 -110z"/>
<path d="M6460 340 c0 -38 -4 -70 -8 -70 -5 0 -22 24 -38 53 -24 43 -29 48
-32 30 -4 -28 73 -163 93 -163 12 0 15 20 15 110 0 91 -3 110 -15 110 -12 0
-15 -14 -15 -70z"/>
<path d="M6591 389 c-40 -44 -34 -152 12 -184 41 -29 54 -7 15 25 -19 15 -23
28 -23 75 0 47 4 60 23 75 12 10 22 21 22 24 0 14 -31 4 -49 -15z"/>
<path d="M6670 401 c0 -11 26 -22 34 -14 3 3 3 10 0 14 -7 12 -34 11 -34 0z"/>
<path d="M6780 403 c2 -20 48 -95 53 -86 9 15 -24 93 -40 93 -7 0 -13 -3 -13
-7z"/>
<path d="M6873 353 c-28 -63 -43 -163 -24 -163 6 0 11 17 11 40 0 26 12 65 35
110 28 55 32 70 20 70 -10 0 -26 -23 -42 -57z"/>
<path d="M6198 303 c12 -2 30 -2 40 0 9 3 -1 5 -23 4 -22 0 -30 -2 -17 -4z"/>
<path d="M6008 284 c28 -19 28 -49 0 -68 -29 -20 -15 -33 17 -16 21 11 25 21
25 57 0 42 -1 43 -32 43 -32 0 -32 0 -10 -16z"/>
<path d="M5715 250 c-3 -5 3 -10 14 -10 12 0 21 5 21 10 0 6 -6 10 -14 10 -8
0 -18 -4 -21 -10z"/>
<path d="M6670 205 c0 -13 4 -14 20 -5 11 6 20 13 20 15 0 3 -9 5 -20 5 -11 0
-20 -7 -20 -15z"/>
<path d="M6180 200 c0 -5 18 -10 40 -10 22 0 40 5 40 10 0 6 -18 10 -40 10
-22 0 -40 -4 -40 -10z"/>
</g>
</svg>
