
<svg version="1.0" xmlns="http://www.w3.org/2000/svg"
 width="250pt" height="45pt" viewBox="0 0 474.000000 175.000000"
 preserveAspectRatio="xMidYMid meet">

<g transform="translate(0.000000,175.000000) scale(0.100000,-0.100000)"
fill="" stroke="none">
<path d="M2372 1663 c-11 -10 -71 -79 -132 -153 -62 -74 -122 -136 -132 -138
-11 -2 -38 9 -60 23 -68 45 -77 41 -211 -93 -67 -67 -118 -125 -114 -129 4 -4
48 33 97 82 l89 88 28 -33 c38 -45 52 -71 53 -97 0 -13 3 -23 8 -22 4 0 79 88
167 196 155 189 160 194 166 164 3 -16 18 -44 33 -61 30 -37 26 -51 -32 -104
l-36 -34 27 -41 c15 -22 27 -47 27 -56 0 -11 14 -6 51 20 75 51 90 53 165 15
55 -28 68 -31 89 -22 23 11 25 17 25 74 l0 62 38 -37 c27 -26 47 -37 69 -37
29 0 30 -1 36 -57 4 -38 1 -67 -9 -91 -7 -19 -14 -36 -14 -38 0 -2 21 10 48
26 73 45 97 44 152 -6 40 -36 67 -41 38 -7 -8 10 -47 57 -87 105 -39 47 -79
89 -88 92 -9 4 -32 1 -51 -5 l-34 -11 -172 171 c-112 111 -180 171 -193 171
-11 0 -30 -8 -41 -17z"/>
<path d="M1614 1215 c-10 -16 -17 -39 -15 -53 1 -15 -6 -33 -20 -48 -18 -19
-20 -27 -11 -33 10 -6 10 -10 -2 -20 -12 -10 -17 -8 -26 9 -6 11 -9 28 -6 38
3 9 -3 28 -13 41 l-18 24 -18 -26 c-9 -15 -15 -36 -12 -46 3 -12 -3 -27 -13
-36 -14 -13 -16 -23 -10 -45 6 -22 4 -32 -11 -46 -20 -18 -21 -17 -34 39 -5
24 -8 27 -20 17 -8 -7 -15 -23 -15 -36 0 -12 -4 -26 -10 -29 -5 -3 -10 -19
-10 -35 0 -16 -5 -32 -11 -35 -6 -4 -8 -13 -5 -20 2 -7 1 -16 -4 -21 -5 -5
-10 -20 -12 -34 l-3 -25 264 -3 c271 -2 297 1 269 35 -6 8 -8 16 -5 20 4 3 2
12 -4 19 -6 8 -9 20 -6 28 3 8 -1 20 -9 26 -8 7 -14 27 -14 46 0 18 -4 36 -10
39 -5 3 -10 15 -10 26 0 11 -5 29 -11 40 -14 27 -39 7 -39 -32 0 -37 -13 -43
-36 -18 -14 16 -16 22 -5 28 10 7 10 10 1 16 -9 6 -9 9 1 16 11 6 8 13 -10 33
-16 17 -22 33 -19 50 3 16 -3 34 -17 52 l-22 28 -19 -29z"/>
<path d="M3107 1211 c-9 -15 -14 -39 -12 -52 3 -16 -4 -33 -23 -53 -15 -16
-21 -25 -13 -21 11 6 13 3 9 -13 -3 -12 -1 -23 4 -24 5 -2 1 -14 -9 -27 -23
-28 -48 -20 -40 11 3 11 1 29 -6 39 -15 24 -37 6 -37 -31 0 -15 -6 -33 -14
-39 -7 -6 -11 -22 -8 -36 3 -16 -2 -33 -12 -44 -9 -10 -13 -21 -9 -24 3 -4 0
-15 -8 -24 -13 -16 -15 -31 -10 -70 1 -10 62 -13 266 -13 l266 0 -4 23 c-5 26
-15 55 -28 79 -5 10 -9 29 -9 42 0 14 -5 28 -11 32 -6 3 -9 15 -6 25 6 23 -17
57 -27 40 -5 -7 -9 -23 -11 -37 -1 -14 -6 -28 -9 -32 -10 -10 -31 28 -32 58 0
14 -6 35 -13 48 -7 13 -10 30 -7 38 3 8 -2 27 -11 41 l-17 25 -18 -22 c-10
-12 -18 -35 -18 -50 0 -32 -24 -58 -35 -39 -4 6 -2 14 4 18 7 5 3 15 -14 31
-17 16 -23 31 -20 48 4 23 -21 82 -35 82 -3 0 -13 -13 -23 -29z"/>
<path d="M2115 1130 c-3 -5 -29 -10 -56 -10 -92 0 -95 -7 -102 -192 l-4 -108
44 0 c37 0 45 -4 53 -26 6 -14 10 -27 10 -30 0 -2 -184 -4 -410 -4 -267 0
-410 -3 -410 -10 0 -7 386 -10 1139 -10 749 0 1142 3 1146 10 4 7 -138 10
-420 10 l-426 0 16 30 c14 28 20 30 70 30 42 0 55 3 55 15 0 8 -4 15 -10 15
-5 0 -10 17 -10 38 0 27 -14 61 -51 123 -63 107 -101 129 -222 129 -42 0 -79
-4 -82 -10 -3 -5 -37 -10 -75 -10 -38 0 -72 5 -75 10 -3 6 -44 10 -90 10 -46
0 -87 -4 -90 -10z m402 -217 c-2 -32 -3 -6 -3 57 0 63 1 89 3 58 2 -32 2 -84
0 -115z m-312 97 l0 -35 -80 0 c-76 0 -80 1 -83 23 -7 48 2 53 85 50 l78 -3 0
-35z m225 0 l0 -40 -80 0 -80 0 0 40 0 40 80 0 80 0 0 -40z m288 1 c12 -21 22
-41 22 -45 0 -3 -42 -6 -94 -6 -100 0 -106 3 -106 54 0 33 6 36 85 36 l71 0
22 -39z m-118 -81 c0 -5 -12 -10 -26 -10 -14 0 -23 4 -19 10 3 6 15 10 26 10
10 0 19 -4 19 -10z m-460 -100 c15 -28 -22 -65 -50 -50 -19 10 -27 49 -13 63
14 14 53 6 63 -13z m158 -12 c4 -36 -26 -53 -56 -32 -38 26 -19 67 28 62 19
-2 26 -10 28 -30z m372 17 c14 -17 5 -51 -15 -59 -33 -12 -61 19 -50 55 8 23
47 25 65 4z m-466 -32 c3 -10 9 -24 12 -30 4 -9 -5 -13 -30 -13 -41 0 -42 2
-20 35 19 29 29 31 38 8z m381 -13 l16 -30 -146 0 c-80 0 -145 2 -145 4 0 3 4
16 10 30 9 26 10 26 129 26 l120 0 16 -30z"/>
<path d="M40 570 c-29 -29 -29 -131 0 -160 17 -17 33 -20 110 -20 78 0 93 3
111 21 18 18 21 30 17 86 -5 86 -15 93 -130 93 -75 0 -91 -3 -108 -20z m174
-10 c24 -9 26 -14 26 -69 0 -71 -11 -81 -90 -81 -79 0 -90 10 -90 81 0 53 3
61 23 69 30 12 100 12 131 0z"/>
<path d="M570 581 c0 -6 21 -11 48 -13 l47 -3 3 -87 c2 -68 6 -88 17 -88 11 0
15 20 17 88 l3 87 48 3 c26 2 47 7 47 13 0 5 -49 9 -115 9 -66 0 -115 -4 -115
-9z"/>
<path d="M830 510 c0 -111 10 -120 128 -120 124 0 132 7 132 116 0 77 -2 84
-20 84 -18 0 -20 -7 -20 -78 0 -47 -5 -83 -12 -90 -15 -15 -122 -16 -149 -2
-16 9 -19 22 -19 90 0 73 -2 80 -20 80 -18 0 -20 -7 -20 -80z"/>
<path d="M1130 490 c0 -92 1 -100 19 -100 15 0 21 8 23 34 l3 35 79 -35 c46
-20 90 -33 105 -31 23 3 18 7 -36 33 -35 16 -63 32 -63 36 0 5 22 8 49 8 40 0
53 4 65 22 21 30 20 54 -4 78 -18 18 -33 20 -130 20 l-110 0 0 -100z m201 70
c21 -12 25 -40 7 -58 -7 -7 -43 -12 -90 -12 l-78 0 0 33 c0 19 3 37 7 40 10
11 132 8 154 -3z"/>
<path d="M1420 490 c0 -91 2 -101 18 -98 12 2 18 14 20 41 l3 37 73 -40 c67
-37 116 -51 116 -32 0 4 -34 24 -75 45 -41 22 -75 43 -75 48 0 5 32 25 70 44
68 34 88 55 53 55 -10 0 -50 -18 -90 -39 l-72 -40 -3 37 c-2 26 -8 38 -20 40
-16 3 -18 -7 -18 -98z"/>
<path d="M1790 581 c0 -6 21 -11 48 -13 l47 -3 3 -87 c2 -68 6 -88 17 -88 11
0 15 20 17 88 l3 87 48 3 c26 2 47 7 47 13 0 5 -49 9 -115 9 -66 0 -115 -4
-115 -9z"/>
<path d="M2072 574 c-19 -13 -22 -24 -22 -84 0 -91 12 -100 131 -100 109 0
119 9 119 102 0 89 -11 98 -121 98 -60 0 -91 -4 -107 -16z m169 -14 c16 -9 19
-22 19 -74 0 -73 -3 -76 -85 -76 -82 0 -85 3 -85 76 0 49 4 65 18 73 22 14
108 14 133 1z"/>
<path d="M2347 583 c-4 -3 -7 -39 -7 -80 0 -103 12 -113 128 -113 124 0 132 7
132 116 0 76 -2 85 -17 82 -15 -3 -18 -16 -21 -83 -2 -48 -8 -82 -15 -87 -18
-11 -125 -10 -148 2 -16 9 -19 22 -19 90 0 60 -3 80 -13 80 -8 0 -17 -3 -20
-7z"/>
<path d="M2640 490 c0 -92 1 -100 19 -100 15 0 21 8 23 34 l3 35 79 -35 c46
-20 90 -33 105 -31 23 3 18 7 -36 33 -35 16 -63 32 -63 36 0 5 22 8 49 8 40 0
53 4 65 22 21 30 20 54 -4 78 -18 18 -33 20 -130 20 l-110 0 0 -100z m201 70
c21 -12 25 -40 7 -58 -7 -7 -43 -12 -90 -12 l-78 0 0 33 c0 19 3 37 7 40 10
11 132 8 154 -3z"/>
<path d="M3105 499 c-33 -51 -61 -96 -63 -100 -8 -19 26 -8 48 16 21 22 32 25
96 25 69 0 74 -1 94 -30 22 -30 50 -40 50 -17 -1 25 -125 192 -145 195 -15 2
-34 -19 -80 -89z m109 7 c14 -19 26 -37 26 -40 0 -3 -25 -6 -55 -6 -30 0 -55
2 -55 5 0 9 45 75 51 75 4 0 18 -15 33 -34z"/>
<path d="M3382 574 c-19 -13 -22 -24 -22 -84 0 -92 11 -100 136 -100 77 0 94
3 108 19 23 25 18 84 -6 89 -14 3 -18 -4 -18 -30 0 -48 -15 -58 -86 -58 -92 0
-94 2 -94 76 0 70 11 84 69 84 17 0 31 5 31 10 0 16 -93 12 -118 -6z"/>
<path d="M3672 574 c-19 -13 -22 -24 -22 -89 0 -63 3 -76 19 -85 25 -13 211
-13 211 0 0 6 -35 10 -84 10 -89 0 -121 14 -114 49 3 13 20 16 101 19 53 1 97
7 97 12 0 5 -44 11 -97 12 -78 2 -98 6 -100 18 -5 26 13 41 56 47 22 3 41 10
41 14 0 15 -84 10 -108 -7z"/>
<path d="M3920 490 c0 -93 1 -100 20 -100 17 0 19 8 22 74 l3 75 87 -75 c116
-99 123 -98 123 26 0 82 -2 95 -17 98 -16 3 -18 -6 -18 -72 0 -42 -2 -76 -6
-76 -3 0 -44 34 -92 75 -118 102 -122 101 -122 -25z"/>
<path d="M4227 572 c-12 -13 -17 -37 -17 -84 0 -92 9 -98 138 -98 61 0 102 4
102 10 0 6 -36 10 -88 10 -55 0 -92 4 -100 12 -7 7 -12 38 -12 70 0 72 10 78
119 78 47 0 81 4 81 10 0 6 -41 10 -103 10 -88 0 -106 -3 -120 -18z"/>
<path d="M4533 532 c51 -52 57 -62 57 -100 0 -35 3 -42 20 -42 17 0 20 7 20
42 0 38 6 48 57 100 43 44 53 58 38 58 -10 0 -40 -18 -67 -41 l-48 -40 -28 19
c-15 11 -36 29 -46 41 -11 12 -28 21 -40 21 -16 0 -9 -11 37 -58z"/>
<path d="M412 494 c-57 -47 -100 -89 -97 -95 8 -12 225 -12 225 1 0 6 -33 10
-80 10 -44 0 -80 4 -80 8 0 4 36 37 80 73 75 61 96 89 67 89 -7 0 -59 -39
-115 -86z"/>
<path d="M3352 163 c3 -59 6 -68 23 -70 11 -2 14 0 8 3 -9 4 -13 28 -13 70 0
38 -4 64 -10 64 -7 0 -10 -25 -8 -67z"/>
<path d="M1410 155 c0 -37 4 -65 10 -65 6 0 10 28 10 65 0 37 -4 65 -10 65 -6
0 -10 -28 -10 -65z"/>
<path d="M1459 212 c9 -7 11 -19 7 -36 -4 -15 -2 -26 4 -26 20 0 10 -41 -12
-50 -23 -9 -23 -9 -2 -9 28 -1 48 24 38 46 -4 10 -8 31 -8 48 -1 21 -6 30 -21
33 -15 2 -17 1 -6 -6z"/>
<path d="M1770 155 c0 -37 4 -65 10 -65 6 0 10 28 10 65 0 37 -4 65 -10 65 -6
0 -10 -28 -10 -65z"/>
<path d="M2368 203 c-2 -10 -1 -38 2 -63 4 -35 9 -45 25 -47 11 -2 14 0 8 3
-7 3 -13 23 -13 44 0 21 6 41 13 43 10 4 10 6 0 6 -7 1 -13 8 -13 16 0 21 -17
19 -22 -2z"/>
<path d="M2710 155 c0 -37 4 -65 10 -65 6 0 10 28 10 65 0 37 -4 65 -10 65 -6
0 -10 -28 -10 -65z"/>
<path d="M1560 171 c-22 -43 1 -82 48 -80 27 1 27 1 -3 8 -24 5 -31 12 -33 34
-2 16 2 35 9 43 8 9 8 14 1 14 -6 0 -16 -9 -22 -19z"/>
<path d="M1613 176 c9 -10 15 -22 12 -27 -4 -5 1 -9 11 -9 15 0 15 2 2 22 -8
12 -21 24 -29 27 -9 3 -8 -2 4 -13z"/>
<path d="M1900 140 c0 -27 5 -50 10 -50 6 0 10 23 10 50 0 28 -4 50 -10 50 -5
0 -10 -22 -10 -50z"/>
<path d="M1938 183 c7 -3 16 -2 19 1 4 3 -2 6 -13 5 -11 0 -14 -3 -6 -6z"/>
<path d="M2012 178 c-7 -7 -12 -24 -12 -38 0 -33 17 -50 50 -49 l25 1 -25 7
c-28 8 -40 52 -19 77 14 17 -2 19 -19 2z"/>
<path d="M2063 165 c13 -27 27 -33 27 -12 0 14 -19 37 -31 37 -4 0 -2 -11 4
-25z"/>
<path d="M2162 178 c-7 -7 -12 -24 -12 -38 0 -33 17 -50 50 -49 22 2 22 2 3 6
-38 7 -50 31 -31 64 17 30 12 39 -10 17z"/>
<path d="M2213 165 c13 -27 27 -33 27 -12 0 14 -19 37 -31 37 -4 0 -2 -11 4
-25z"/>
<path d="M2472 178 c-24 -24 -9 -88 22 -88 6 0 5 5 -2 12 -7 7 -12 24 -12 38
0 14 5 31 12 38 7 7 8 12 2 12 -5 0 -15 -5 -22 -12z"/>
<path d="M2518 178 c7 -7 12 -24 12 -38 0 -14 -5 -31 -12 -38 -7 -7 -8 -12 -2
-12 18 0 34 24 34 50 0 26 -16 50 -34 50 -6 0 -5 -5 2 -12z"/>
<path d="M2820 140 c0 -27 5 -50 10 -50 6 0 10 23 10 50 0 28 -4 50 -10 50 -5
0 -10 -22 -10 -50z"/>
<path d="M2858 183 c7 -3 16 -2 19 1 4 3 -2 6 -13 5 -11 0 -14 -3 -6 -6z"/>
<path d="M2958 180 c17 -7 22 -17 22 -44 0 -19 5 -38 10 -41 11 -7 14 53 4 79
-4 9 -17 16 -33 15 -25 0 -25 0 -3 -9z"/>
<path d="M3068 140 c17 -52 37 -70 26 -22 -12 46 -23 72 -33 72 -5 0 -2 -22 7
-50z"/>
<path d="M3121 159 c-6 -18 -11 -41 -10 -53 0 -17 3 -16 14 9 21 50 27 75 17
75 -6 0 -15 -14 -21 -31z"/>
<path d="M3216 174 c-34 -33 -7 -85 42 -83 l27 2 -27 4 c-33 5 -46 39 -28 72
13 25 7 27 -14 5z"/>
<path d="M3270 175 c6 -8 9 -19 5 -25 -3 -5 1 -10 9 -10 20 0 20 14 0 34 -19
20 -31 21 -14 1z"/>
<path d="M1813 153 c9 -2 23 -2 30 0 6 3 -1 5 -18 5 -16 0 -22 -2 -12 -5z"/>
<path d="M2935 136 c-18 -13 -16 -46 4 -46 6 0 8 7 5 15 -4 8 -1 22 6 30 15
19 10 19 -15 1z"/>
</g>
</svg>
